M48
;GenerationSoftware,Autodesk,EAGLE,9.6.2*%
;CreationDate,2025-05-31T02:34:48Z*%
FMAT,2
ICI,OFF
METRIC,TZ,000.000
T4C0.350
T3C0.800
T2C1.016
T1C1.700
%
G90
M71
T1
X7461Y7151
X7461Y14151
T2
X5398Y47942
X5398Y55562
X5398Y53022
X5398Y50482
T3
X28754Y3045
X18554Y3045
X46109Y7104
X55809Y7104
X46109Y4604
X55809Y4604
T4
X52864Y29051
X52864Y27781
X53975Y29051
X53975Y27781
X50482Y35084
X51594Y35084
X52705Y35084
X53816Y35084
X54927Y35084
X56039Y35084
X57150Y35084
X44132Y24527
X32226Y25241
X18098Y53975
X18574Y24130
X12541Y23336
X7064Y30797
X32385Y15002
X25241Y16669
X53737Y8414
X15875Y13176
X19978Y61135
X50641Y29051
X35719Y13652
X33338Y13335
X34766Y11589
X36830Y12382
X38894Y18336
X38894Y16192
X38894Y11351
X38894Y14446
X47625Y52705
X47625Y34925
X55514Y18098
X55562Y14764
X46037Y52705
X46037Y34925
X30162Y58420
X30639Y66040
X37842Y25241
X46196Y27781
X39211Y34766
X39211Y42545
X39211Y52070
X39211Y55404
X46196Y29051
X47307Y29051
X47307Y27781
X40323Y9366
X48419Y29051
X48419Y27781
X49530Y27781
X49530Y29051
X50641Y27781
X51752Y27781
X51752Y29051
X38418Y26987
M30