G04 EAGLE Gerber RS-274X export*
G75*
%MOMM*%
%FSLAX34Y34*%
%LPD*%
%INBottom Copper*%
%IPPOS*%
%AMOC8*
5,1,8,0,0,1.08239X$1,22.5*%
G01*
%ADD10C,1.308000*%
%ADD11C,1.524000*%
%ADD12C,0.756400*%
%ADD13C,0.304800*%
%ADD14C,0.406400*%

G36*
X576447Y10164D02*
X576447Y10164D01*
X576467Y10162D01*
X576568Y10184D01*
X576670Y10200D01*
X576688Y10210D01*
X576707Y10214D01*
X576796Y10267D01*
X576887Y10316D01*
X576901Y10330D01*
X576918Y10340D01*
X576986Y10419D01*
X577057Y10494D01*
X577065Y10512D01*
X577078Y10527D01*
X577117Y10623D01*
X577160Y10717D01*
X577163Y10737D01*
X577170Y10755D01*
X577188Y10922D01*
X577188Y13156D01*
X577189Y13161D01*
X577214Y108006D01*
X577214Y398463D01*
X577211Y398482D01*
X577213Y398502D01*
X577191Y398603D01*
X577175Y398705D01*
X577165Y398723D01*
X577161Y398742D01*
X577108Y398831D01*
X577059Y398923D01*
X577045Y398936D01*
X577035Y398953D01*
X576956Y399021D01*
X576881Y399092D01*
X576863Y399100D01*
X576848Y399113D01*
X576752Y399152D01*
X576658Y399196D01*
X576638Y399198D01*
X576620Y399205D01*
X576453Y399224D01*
X505586Y399224D01*
X505586Y581851D01*
X576453Y581851D01*
X576473Y581854D01*
X576492Y581852D01*
X576594Y581874D01*
X576696Y581891D01*
X576713Y581900D01*
X576733Y581905D01*
X576822Y581958D01*
X576913Y582006D01*
X576927Y582021D01*
X576944Y582031D01*
X577011Y582109D01*
X577083Y582184D01*
X577091Y582202D01*
X577104Y582218D01*
X577143Y582314D01*
X577186Y582408D01*
X577188Y582427D01*
X577196Y582446D01*
X577214Y582613D01*
X577214Y628650D01*
X577211Y628670D01*
X577213Y628689D01*
X577191Y628791D01*
X577175Y628893D01*
X577165Y628910D01*
X577161Y628930D01*
X577108Y629019D01*
X577059Y629110D01*
X577045Y629124D01*
X577035Y629141D01*
X576956Y629208D01*
X576881Y629280D01*
X576863Y629288D01*
X576848Y629301D01*
X576752Y629340D01*
X576658Y629383D01*
X576638Y629385D01*
X576620Y629393D01*
X576453Y629411D01*
X306451Y629411D01*
X306431Y629408D01*
X306412Y629410D01*
X306310Y629388D01*
X306208Y629372D01*
X306191Y629362D01*
X306171Y629358D01*
X306082Y629305D01*
X305991Y629256D01*
X305977Y629242D01*
X305960Y629232D01*
X305893Y629153D01*
X305821Y629078D01*
X305813Y629060D01*
X305800Y629045D01*
X305761Y628949D01*
X305718Y628855D01*
X305716Y628835D01*
X305708Y628817D01*
X305690Y628650D01*
X305690Y589392D01*
X305704Y589302D01*
X305712Y589211D01*
X305724Y589182D01*
X305729Y589150D01*
X305772Y589069D01*
X305808Y588985D01*
X305834Y588953D01*
X305845Y588932D01*
X305868Y588910D01*
X305913Y588854D01*
X306985Y587782D01*
X307948Y585458D01*
X307948Y582942D01*
X306985Y580618D01*
X305207Y578840D01*
X302883Y577877D01*
X300367Y577877D01*
X298043Y578840D01*
X296265Y580618D01*
X295302Y582942D01*
X295302Y585458D01*
X296265Y587782D01*
X297337Y588854D01*
X297390Y588928D01*
X297450Y588997D01*
X297462Y589028D01*
X297481Y589054D01*
X297508Y589141D01*
X297542Y589226D01*
X297546Y589267D01*
X297553Y589289D01*
X297552Y589321D01*
X297560Y589392D01*
X297560Y628650D01*
X297557Y628670D01*
X297559Y628689D01*
X297537Y628791D01*
X297521Y628893D01*
X297511Y628910D01*
X297507Y628930D01*
X297454Y629019D01*
X297405Y629110D01*
X297391Y629124D01*
X297381Y629141D01*
X297302Y629208D01*
X297227Y629280D01*
X297209Y629288D01*
X297194Y629301D01*
X297098Y629340D01*
X297004Y629383D01*
X296984Y629385D01*
X296966Y629393D01*
X296799Y629411D01*
X10922Y629411D01*
X10902Y629408D01*
X10883Y629410D01*
X10781Y629388D01*
X10679Y629372D01*
X10662Y629362D01*
X10642Y629358D01*
X10553Y629305D01*
X10462Y629256D01*
X10448Y629242D01*
X10431Y629232D01*
X10364Y629153D01*
X10292Y629078D01*
X10284Y629060D01*
X10271Y629045D01*
X10232Y628949D01*
X10189Y628855D01*
X10187Y628835D01*
X10179Y628817D01*
X10161Y628650D01*
X10161Y10922D01*
X10164Y10902D01*
X10162Y10883D01*
X10184Y10781D01*
X10200Y10679D01*
X10210Y10662D01*
X10214Y10642D01*
X10267Y10553D01*
X10316Y10462D01*
X10330Y10448D01*
X10340Y10431D01*
X10419Y10364D01*
X10494Y10292D01*
X10512Y10284D01*
X10527Y10271D01*
X10623Y10232D01*
X10717Y10189D01*
X10737Y10187D01*
X10755Y10179D01*
X10922Y10161D01*
X576427Y10161D01*
X576447Y10164D01*
G37*
%LPC*%
G36*
X474992Y342927D02*
X474992Y342927D01*
X472668Y343890D01*
X470890Y345668D01*
X469927Y347992D01*
X469927Y350508D01*
X470890Y352832D01*
X471962Y353904D01*
X472015Y353978D01*
X472075Y354047D01*
X472087Y354078D01*
X472106Y354104D01*
X472133Y354191D01*
X472167Y354276D01*
X472171Y354317D01*
X472178Y354339D01*
X472177Y354371D01*
X472185Y354442D01*
X472185Y521858D01*
X472171Y521948D01*
X472163Y522039D01*
X472151Y522068D01*
X472146Y522100D01*
X472103Y522181D01*
X472067Y522265D01*
X472041Y522297D01*
X472030Y522318D01*
X472007Y522340D01*
X471962Y522396D01*
X470890Y523468D01*
X469927Y525792D01*
X469927Y528308D01*
X470890Y530632D01*
X472668Y532410D01*
X474992Y533373D01*
X477508Y533373D01*
X479832Y532410D01*
X481610Y530632D01*
X482573Y528308D01*
X482573Y525792D01*
X481610Y523468D01*
X480538Y522396D01*
X480485Y522322D01*
X480425Y522253D01*
X480413Y522222D01*
X480394Y522196D01*
X480367Y522109D01*
X480333Y522024D01*
X480329Y521983D01*
X480322Y521961D01*
X480323Y521929D01*
X480315Y521858D01*
X480315Y354442D01*
X480329Y354352D01*
X480337Y354261D01*
X480349Y354232D01*
X480354Y354200D01*
X480397Y354119D01*
X480433Y354035D01*
X480459Y354003D01*
X480470Y353982D01*
X480493Y353960D01*
X480538Y353904D01*
X481610Y352832D01*
X482573Y350508D01*
X482573Y347992D01*
X481610Y345668D01*
X479832Y343890D01*
X477508Y342927D01*
X474992Y342927D01*
G37*
%LPD*%
%LPC*%
G36*
X459117Y342927D02*
X459117Y342927D01*
X456793Y343890D01*
X455015Y345668D01*
X454052Y347992D01*
X454052Y350508D01*
X455015Y352832D01*
X456087Y353904D01*
X456140Y353978D01*
X456200Y354047D01*
X456212Y354078D01*
X456231Y354104D01*
X456258Y354191D01*
X456292Y354276D01*
X456296Y354317D01*
X456303Y354339D01*
X456302Y354371D01*
X456310Y354442D01*
X456310Y521858D01*
X456296Y521948D01*
X456288Y522039D01*
X456276Y522068D01*
X456271Y522100D01*
X456228Y522181D01*
X456192Y522265D01*
X456166Y522297D01*
X456155Y522318D01*
X456132Y522340D01*
X456087Y522396D01*
X455015Y523468D01*
X454052Y525792D01*
X454052Y528308D01*
X455015Y530632D01*
X456793Y532410D01*
X459117Y533373D01*
X461633Y533373D01*
X463957Y532410D01*
X465735Y530632D01*
X466698Y528308D01*
X466698Y525792D01*
X465735Y523468D01*
X464663Y522396D01*
X464610Y522322D01*
X464550Y522253D01*
X464538Y522222D01*
X464519Y522196D01*
X464492Y522109D01*
X464458Y522024D01*
X464454Y521983D01*
X464447Y521961D01*
X464448Y521929D01*
X464440Y521858D01*
X464440Y354442D01*
X464454Y354352D01*
X464462Y354261D01*
X464474Y354232D01*
X464479Y354200D01*
X464522Y354119D01*
X464558Y354035D01*
X464584Y354003D01*
X464595Y353982D01*
X464618Y353960D01*
X464663Y353904D01*
X465735Y352832D01*
X466698Y350508D01*
X466698Y347992D01*
X465735Y345668D01*
X463957Y343890D01*
X461633Y342927D01*
X459117Y342927D01*
G37*
%LPD*%
%LPC*%
G36*
X70901Y122852D02*
X70901Y122852D01*
X64042Y125693D01*
X58793Y130942D01*
X55952Y137801D01*
X55952Y145224D01*
X58793Y152083D01*
X64042Y157332D01*
X70901Y160173D01*
X78324Y160173D01*
X85183Y157332D01*
X90432Y152083D01*
X93273Y145224D01*
X93273Y137801D01*
X90432Y130942D01*
X85183Y125693D01*
X78324Y122852D01*
X70901Y122852D01*
G37*
%LPD*%
%LPC*%
G36*
X70901Y52852D02*
X70901Y52852D01*
X64042Y55693D01*
X58793Y60942D01*
X55952Y67801D01*
X55952Y75224D01*
X58793Y82083D01*
X64042Y87332D01*
X70901Y90173D01*
X78324Y90173D01*
X85183Y87332D01*
X90432Y82083D01*
X93273Y75224D01*
X93273Y67801D01*
X90432Y60942D01*
X85183Y55693D01*
X78324Y52852D01*
X70901Y52852D01*
G37*
%LPD*%
%LPC*%
G36*
X390855Y341340D02*
X390855Y341340D01*
X388531Y342302D01*
X386752Y344081D01*
X385790Y346405D01*
X385790Y348920D01*
X386752Y351244D01*
X387825Y352317D01*
X387878Y352390D01*
X387937Y352460D01*
X387950Y352490D01*
X387968Y352516D01*
X387995Y352603D01*
X388029Y352688D01*
X388034Y352729D01*
X388041Y352751D01*
X388040Y352784D01*
X388048Y352855D01*
X388048Y420258D01*
X388033Y420348D01*
X388026Y420439D01*
X388013Y420468D01*
X388008Y420500D01*
X387965Y420581D01*
X387930Y420665D01*
X387904Y420697D01*
X387893Y420718D01*
X387870Y420740D01*
X387825Y420796D01*
X386752Y421868D01*
X385790Y424192D01*
X385790Y426708D01*
X386752Y429032D01*
X388531Y430810D01*
X390855Y431773D01*
X393370Y431773D01*
X395694Y430810D01*
X397473Y429032D01*
X398435Y426708D01*
X398435Y424192D01*
X397473Y421868D01*
X396400Y420796D01*
X396347Y420722D01*
X396288Y420653D01*
X396275Y420622D01*
X396257Y420596D01*
X396230Y420509D01*
X396196Y420424D01*
X396191Y420383D01*
X396184Y420361D01*
X396185Y420329D01*
X396177Y420258D01*
X396177Y352855D01*
X396192Y352765D01*
X396199Y352674D01*
X396212Y352644D01*
X396217Y352612D01*
X396260Y352531D01*
X396295Y352447D01*
X396321Y352415D01*
X396332Y352395D01*
X396355Y352372D01*
X396400Y352317D01*
X397473Y351244D01*
X398435Y348920D01*
X398435Y346405D01*
X397473Y344081D01*
X395694Y342302D01*
X393370Y341340D01*
X390855Y341340D01*
G37*
%LPD*%
%LPC*%
G36*
X44334Y494664D02*
X44334Y494664D01*
X40599Y496211D01*
X37741Y499069D01*
X36194Y502804D01*
X36194Y506846D01*
X37741Y510581D01*
X40599Y513439D01*
X44334Y514986D01*
X63616Y514986D01*
X67351Y513439D01*
X70209Y510581D01*
X71756Y506846D01*
X71756Y502804D01*
X70209Y499069D01*
X67351Y496211D01*
X63616Y494664D01*
X44334Y494664D01*
G37*
%LPD*%
%LPC*%
G36*
X44334Y520064D02*
X44334Y520064D01*
X40599Y521611D01*
X37741Y524469D01*
X36194Y528204D01*
X36194Y532246D01*
X37741Y535981D01*
X40599Y538839D01*
X44334Y540386D01*
X63616Y540386D01*
X67351Y538839D01*
X70209Y535981D01*
X71756Y532246D01*
X71756Y528204D01*
X70209Y524469D01*
X67351Y521611D01*
X63616Y520064D01*
X44334Y520064D01*
G37*
%LPD*%
%LPC*%
G36*
X44334Y469264D02*
X44334Y469264D01*
X40599Y470811D01*
X37741Y473669D01*
X36194Y477404D01*
X36194Y481446D01*
X37741Y485181D01*
X40599Y488039D01*
X44334Y489586D01*
X63616Y489586D01*
X67351Y488039D01*
X70209Y485181D01*
X71756Y481446D01*
X71756Y477404D01*
X70209Y473669D01*
X67351Y470811D01*
X63616Y469264D01*
X44334Y469264D01*
G37*
%LPD*%
%LPC*%
G36*
X284721Y16289D02*
X284721Y16289D01*
X279516Y18445D01*
X275533Y22429D01*
X273377Y27633D01*
X273377Y33267D01*
X275533Y38471D01*
X279516Y42455D01*
X284721Y44611D01*
X290354Y44611D01*
X295559Y42455D01*
X299542Y38471D01*
X301698Y33267D01*
X301698Y27633D01*
X299542Y22429D01*
X295559Y18445D01*
X290354Y16289D01*
X284721Y16289D01*
G37*
%LPD*%
%LPC*%
G36*
X182721Y16289D02*
X182721Y16289D01*
X177516Y18445D01*
X173533Y22429D01*
X171377Y27633D01*
X171377Y33267D01*
X173533Y38471D01*
X177516Y42455D01*
X182721Y44611D01*
X188354Y44611D01*
X193559Y42455D01*
X197542Y38471D01*
X199698Y33267D01*
X199698Y27633D01*
X197542Y22429D01*
X193559Y18445D01*
X188354Y16289D01*
X182721Y16289D01*
G37*
%LPD*%
%LPC*%
G36*
X387680Y107184D02*
X387680Y107184D01*
X385356Y108146D01*
X383577Y109925D01*
X382615Y112249D01*
X382615Y114764D01*
X383577Y117088D01*
X384142Y117652D01*
X384195Y117726D01*
X384254Y117796D01*
X384267Y117826D01*
X384285Y117852D01*
X384312Y117939D01*
X384346Y118024D01*
X384351Y118065D01*
X384358Y118087D01*
X384357Y118119D01*
X384365Y118191D01*
X384365Y139778D01*
X384350Y139868D01*
X384343Y139959D01*
X384330Y139989D01*
X384325Y140021D01*
X384282Y140102D01*
X384247Y140186D01*
X384221Y140218D01*
X384210Y140238D01*
X384187Y140261D01*
X384142Y140316D01*
X383577Y140881D01*
X382615Y143205D01*
X382615Y145720D01*
X383577Y148044D01*
X385356Y149823D01*
X387680Y150785D01*
X390195Y150785D01*
X392519Y149823D01*
X394298Y148044D01*
X395260Y145720D01*
X395260Y143205D01*
X394298Y140881D01*
X393733Y140316D01*
X393680Y140243D01*
X393621Y140173D01*
X393608Y140143D01*
X393590Y140117D01*
X393563Y140030D01*
X393529Y139945D01*
X393524Y139904D01*
X393517Y139882D01*
X393518Y139849D01*
X393510Y139778D01*
X393510Y118191D01*
X393525Y118100D01*
X393532Y118010D01*
X393545Y117980D01*
X393550Y117948D01*
X393593Y117867D01*
X393628Y117783D01*
X393654Y117751D01*
X393665Y117730D01*
X393688Y117708D01*
X393733Y117652D01*
X394298Y117088D01*
X395260Y114764D01*
X395260Y112249D01*
X394298Y109925D01*
X392519Y108146D01*
X390195Y107184D01*
X387680Y107184D01*
G37*
%LPD*%
%LPC*%
G36*
X554367Y141315D02*
X554367Y141315D01*
X552043Y142277D01*
X550265Y144056D01*
X549302Y146380D01*
X549302Y148895D01*
X550265Y151219D01*
X551337Y152292D01*
X551390Y152365D01*
X551450Y152435D01*
X551462Y152465D01*
X551481Y152491D01*
X551508Y152578D01*
X551542Y152663D01*
X551546Y152704D01*
X551553Y152726D01*
X551552Y152759D01*
X551560Y152830D01*
X551560Y175303D01*
X551546Y175393D01*
X551538Y175484D01*
X551526Y175513D01*
X551521Y175545D01*
X551478Y175626D01*
X551442Y175710D01*
X551416Y175742D01*
X551405Y175763D01*
X551382Y175785D01*
X551337Y175841D01*
X549785Y177393D01*
X548822Y179717D01*
X548822Y182233D01*
X549785Y184557D01*
X551563Y186335D01*
X553887Y187298D01*
X556403Y187298D01*
X558727Y186335D01*
X560505Y184557D01*
X561468Y182233D01*
X561468Y179717D01*
X560505Y177393D01*
X559913Y176801D01*
X559860Y176727D01*
X559800Y176658D01*
X559788Y176627D01*
X559769Y176601D01*
X559742Y176514D01*
X559708Y176429D01*
X559704Y176388D01*
X559697Y176366D01*
X559698Y176334D01*
X559690Y176263D01*
X559690Y152830D01*
X559704Y152740D01*
X559712Y152649D01*
X559724Y152619D01*
X559729Y152587D01*
X559772Y152506D01*
X559808Y152422D01*
X559834Y152390D01*
X559845Y152370D01*
X559868Y152347D01*
X559913Y152292D01*
X560985Y151219D01*
X561948Y148895D01*
X561948Y146380D01*
X560985Y144056D01*
X559207Y142277D01*
X556883Y141315D01*
X554367Y141315D01*
G37*
%LPD*%
%LPC*%
G36*
X390855Y514377D02*
X390855Y514377D01*
X388531Y515340D01*
X386752Y517118D01*
X385790Y519442D01*
X385790Y521958D01*
X386752Y524282D01*
X387825Y525354D01*
X387878Y525428D01*
X387937Y525497D01*
X387949Y525527D01*
X387968Y525554D01*
X387995Y525641D01*
X388029Y525726D01*
X388034Y525766D01*
X388041Y525789D01*
X388040Y525821D01*
X388048Y525892D01*
X388048Y548845D01*
X388033Y548935D01*
X388026Y549026D01*
X388013Y549056D01*
X388008Y549088D01*
X387965Y549169D01*
X387930Y549253D01*
X387904Y549285D01*
X387893Y549305D01*
X387870Y549327D01*
X387825Y549384D01*
X386752Y550456D01*
X385790Y552780D01*
X385790Y555295D01*
X386752Y557619D01*
X388531Y559398D01*
X390855Y560360D01*
X393370Y560360D01*
X395694Y559398D01*
X397473Y557619D01*
X398435Y555295D01*
X398435Y552780D01*
X397473Y550456D01*
X396400Y549384D01*
X396347Y549310D01*
X396288Y549240D01*
X396276Y549210D01*
X396257Y549184D01*
X396230Y549097D01*
X396196Y549012D01*
X396191Y548971D01*
X396184Y548949D01*
X396185Y548917D01*
X396177Y548845D01*
X396177Y525892D01*
X396192Y525802D01*
X396199Y525711D01*
X396212Y525681D01*
X396217Y525650D01*
X396260Y525569D01*
X396295Y525485D01*
X396321Y525453D01*
X396332Y525432D01*
X396355Y525410D01*
X396400Y525354D01*
X397473Y524282D01*
X398435Y521958D01*
X398435Y519442D01*
X397473Y517118D01*
X395694Y515340D01*
X393370Y514377D01*
X390855Y514377D01*
G37*
%LPD*%
%LPC*%
G36*
X332117Y127027D02*
X332117Y127027D01*
X329793Y127990D01*
X328015Y129768D01*
X327052Y132092D01*
X327052Y134608D01*
X328015Y136932D01*
X329793Y138710D01*
X332117Y139673D01*
X333634Y139673D01*
X333724Y139687D01*
X333815Y139695D01*
X333845Y139707D01*
X333877Y139712D01*
X333957Y139755D01*
X334041Y139791D01*
X334073Y139817D01*
X334094Y139828D01*
X334116Y139851D01*
X334172Y139896D01*
X334866Y140590D01*
X351995Y140590D01*
X352085Y140604D01*
X352176Y140612D01*
X352206Y140624D01*
X352238Y140629D01*
X352319Y140672D01*
X352403Y140708D01*
X352435Y140734D01*
X352455Y140745D01*
X352477Y140768D01*
X352534Y140813D01*
X353606Y141885D01*
X355930Y142848D01*
X358445Y142848D01*
X360769Y141885D01*
X362548Y140107D01*
X363510Y137783D01*
X363510Y135267D01*
X362548Y132943D01*
X360769Y131165D01*
X358445Y130202D01*
X355930Y130202D01*
X353606Y131165D01*
X352534Y132237D01*
X352460Y132290D01*
X352390Y132350D01*
X352360Y132362D01*
X352334Y132381D01*
X352247Y132408D01*
X352162Y132442D01*
X352121Y132446D01*
X352099Y132453D01*
X352067Y132452D01*
X351995Y132460D01*
X340359Y132460D01*
X340244Y132441D01*
X340128Y132424D01*
X340122Y132422D01*
X340116Y132421D01*
X340013Y132366D01*
X339909Y132313D01*
X339904Y132308D01*
X339899Y132305D01*
X339818Y132221D01*
X339736Y132137D01*
X339733Y132131D01*
X339729Y132127D01*
X339721Y132110D01*
X339655Y131990D01*
X338735Y129768D01*
X336957Y127990D01*
X334633Y127027D01*
X332117Y127027D01*
G37*
%LPD*%
%LPC*%
G36*
X346405Y109565D02*
X346405Y109565D01*
X344081Y110527D01*
X342302Y112306D01*
X341340Y114630D01*
X341340Y117145D01*
X342302Y119469D01*
X344081Y121248D01*
X346405Y122210D01*
X347922Y122210D01*
X348012Y122225D01*
X348103Y122232D01*
X348132Y122245D01*
X348164Y122250D01*
X348245Y122293D01*
X348329Y122328D01*
X348361Y122354D01*
X348382Y122365D01*
X348404Y122388D01*
X348460Y122433D01*
X353916Y127890D01*
X363108Y127890D01*
X363198Y127904D01*
X363289Y127912D01*
X363318Y127924D01*
X363350Y127929D01*
X363431Y127972D01*
X363515Y128008D01*
X363547Y128034D01*
X363568Y128045D01*
X363590Y128068D01*
X363646Y128113D01*
X364718Y129185D01*
X367042Y130148D01*
X369558Y130148D01*
X371882Y129185D01*
X373660Y127407D01*
X374623Y125083D01*
X374623Y122567D01*
X373660Y120243D01*
X371882Y118465D01*
X369558Y117502D01*
X367042Y117502D01*
X364718Y118465D01*
X363646Y119537D01*
X363572Y119590D01*
X363503Y119650D01*
X363472Y119662D01*
X363446Y119681D01*
X363359Y119708D01*
X363274Y119742D01*
X363233Y119746D01*
X363211Y119753D01*
X363179Y119752D01*
X363108Y119760D01*
X357599Y119760D01*
X357509Y119746D01*
X357418Y119738D01*
X357388Y119726D01*
X357356Y119721D01*
X357276Y119678D01*
X357192Y119642D01*
X357160Y119616D01*
X357139Y119605D01*
X357117Y119582D01*
X357061Y119537D01*
X354208Y116685D01*
X354155Y116611D01*
X354096Y116541D01*
X354083Y116511D01*
X354065Y116485D01*
X354038Y116398D01*
X354004Y116313D01*
X353999Y116272D01*
X353992Y116250D01*
X353993Y116218D01*
X353985Y116147D01*
X353985Y114630D01*
X353023Y112306D01*
X351244Y110527D01*
X348920Y109565D01*
X346405Y109565D01*
G37*
%LPD*%
%LPC*%
G36*
X387680Y155602D02*
X387680Y155602D01*
X385356Y156565D01*
X383577Y158343D01*
X382615Y160667D01*
X382615Y163183D01*
X383577Y165507D01*
X384142Y166071D01*
X384195Y166145D01*
X384254Y166214D01*
X384267Y166245D01*
X384285Y166271D01*
X384312Y166358D01*
X384346Y166443D01*
X384351Y166484D01*
X384358Y166506D01*
X384357Y166538D01*
X384365Y166609D01*
X384365Y178672D01*
X384350Y178762D01*
X384343Y178853D01*
X384330Y178883D01*
X384325Y178915D01*
X384282Y178995D01*
X384247Y179079D01*
X384221Y179111D01*
X384210Y179132D01*
X384187Y179154D01*
X384142Y179210D01*
X383577Y179775D01*
X382615Y182099D01*
X382615Y184614D01*
X383577Y186938D01*
X385356Y188716D01*
X387680Y189679D01*
X390195Y189679D01*
X392519Y188716D01*
X394298Y186938D01*
X395260Y184614D01*
X395260Y182099D01*
X394298Y179775D01*
X393733Y179210D01*
X393680Y179136D01*
X393621Y179067D01*
X393608Y179037D01*
X393590Y179010D01*
X393563Y178924D01*
X393529Y178839D01*
X393524Y178798D01*
X393517Y178775D01*
X393518Y178743D01*
X393510Y178672D01*
X393510Y166609D01*
X393525Y166519D01*
X393532Y166428D01*
X393545Y166399D01*
X393550Y166367D01*
X393593Y166286D01*
X393628Y166202D01*
X393654Y166170D01*
X393665Y166149D01*
X393688Y166127D01*
X393733Y166071D01*
X394298Y165507D01*
X395260Y163183D01*
X395260Y160667D01*
X394298Y158343D01*
X392519Y156565D01*
X390195Y155602D01*
X387680Y155602D01*
G37*
%LPD*%
%LPC*%
G36*
X377167Y246090D02*
X377167Y246090D01*
X374843Y247052D01*
X373064Y248831D01*
X372102Y251155D01*
X372102Y253670D01*
X373064Y255994D01*
X374137Y257067D01*
X374185Y257133D01*
X374190Y257139D01*
X374192Y257143D01*
X374249Y257210D01*
X374262Y257240D01*
X374280Y257266D01*
X374307Y257353D01*
X374341Y257438D01*
X374346Y257479D01*
X374353Y257501D01*
X374352Y257534D01*
X374360Y257605D01*
X374360Y265808D01*
X376964Y268412D01*
X377629Y269078D01*
X377683Y269152D01*
X377742Y269221D01*
X377754Y269251D01*
X377773Y269277D01*
X377800Y269364D01*
X377834Y269449D01*
X377838Y269490D01*
X377845Y269512D01*
X377844Y269545D01*
X377852Y269616D01*
X377852Y271133D01*
X378815Y273457D01*
X380593Y275235D01*
X382917Y276198D01*
X385433Y276198D01*
X387757Y275235D01*
X389535Y273457D01*
X390498Y271133D01*
X390498Y268617D01*
X389535Y266293D01*
X387757Y264515D01*
X385433Y263552D01*
X383916Y263552D01*
X383826Y263538D01*
X383735Y263530D01*
X383705Y263518D01*
X383673Y263513D01*
X383593Y263470D01*
X383509Y263434D01*
X383476Y263408D01*
X383456Y263397D01*
X383434Y263374D01*
X383378Y263329D01*
X382712Y262664D01*
X382669Y262604D01*
X382630Y262563D01*
X382623Y262548D01*
X382600Y262520D01*
X382588Y262490D01*
X382569Y262464D01*
X382542Y262377D01*
X382530Y262347D01*
X382526Y262339D01*
X382526Y262338D01*
X382508Y262292D01*
X382503Y262251D01*
X382496Y262229D01*
X382497Y262197D01*
X382489Y262126D01*
X382489Y257605D01*
X382504Y257515D01*
X382511Y257424D01*
X382524Y257394D01*
X382529Y257362D01*
X382572Y257281D01*
X382607Y257197D01*
X382633Y257165D01*
X382644Y257145D01*
X382667Y257122D01*
X382712Y257067D01*
X383785Y255994D01*
X384747Y253670D01*
X384747Y251155D01*
X383785Y248831D01*
X382006Y247052D01*
X379682Y246090D01*
X377167Y246090D01*
G37*
%LPD*%
%LPC*%
G36*
X55498Y557148D02*
X55498Y557148D01*
X55498Y565786D01*
X62395Y565786D01*
X63974Y565536D01*
X65495Y565041D01*
X66920Y564315D01*
X68214Y563375D01*
X69345Y562244D01*
X70285Y560950D01*
X71011Y559525D01*
X71506Y558004D01*
X71641Y557148D01*
X55498Y557148D01*
G37*
%LPD*%
%LPC*%
G36*
X36309Y557148D02*
X36309Y557148D01*
X36444Y558004D01*
X36939Y559525D01*
X37665Y560950D01*
X38605Y562244D01*
X39736Y563375D01*
X41030Y564315D01*
X42455Y565041D01*
X43976Y565536D01*
X45555Y565786D01*
X52452Y565786D01*
X52452Y557148D01*
X36309Y557148D01*
G37*
%LPD*%
%LPC*%
G36*
X55498Y545464D02*
X55498Y545464D01*
X55498Y554102D01*
X71641Y554102D01*
X71506Y553246D01*
X71011Y551725D01*
X70285Y550300D01*
X69345Y549006D01*
X68214Y547875D01*
X66920Y546935D01*
X65495Y546209D01*
X63974Y545714D01*
X62395Y545464D01*
X55498Y545464D01*
G37*
%LPD*%
%LPC*%
G36*
X45555Y545464D02*
X45555Y545464D01*
X43976Y545714D01*
X42455Y546209D01*
X41030Y546935D01*
X39736Y547875D01*
X38605Y549006D01*
X37665Y550300D01*
X36939Y551725D01*
X36444Y553246D01*
X36309Y554102D01*
X52452Y554102D01*
X52452Y545464D01*
X45555Y545464D01*
G37*
%LPD*%
%LPC*%
G36*
X462611Y72561D02*
X462611Y72561D01*
X462611Y79993D01*
X463736Y79769D01*
X465389Y79085D01*
X466876Y78091D01*
X468141Y76826D01*
X469135Y75339D01*
X469819Y73686D01*
X470043Y72561D01*
X462611Y72561D01*
G37*
%LPD*%
%LPC*%
G36*
X559611Y72561D02*
X559611Y72561D01*
X559611Y79993D01*
X560736Y79769D01*
X562389Y79085D01*
X563876Y78091D01*
X565141Y76826D01*
X566135Y75339D01*
X566819Y73686D01*
X567043Y72561D01*
X559611Y72561D01*
G37*
%LPD*%
%LPC*%
G36*
X462611Y47561D02*
X462611Y47561D01*
X462611Y54993D01*
X463736Y54769D01*
X465389Y54085D01*
X466876Y53091D01*
X468141Y51826D01*
X469135Y50339D01*
X469819Y48686D01*
X470043Y47561D01*
X462611Y47561D01*
G37*
%LPD*%
%LPC*%
G36*
X559611Y47561D02*
X559611Y47561D01*
X559611Y54993D01*
X560736Y54769D01*
X562389Y54085D01*
X563876Y53091D01*
X565141Y51826D01*
X566135Y50339D01*
X566819Y48686D01*
X567043Y47561D01*
X559611Y47561D01*
G37*
%LPD*%
%LPC*%
G36*
X559611Y69514D02*
X559611Y69514D01*
X567043Y69514D01*
X566819Y68389D01*
X566135Y66736D01*
X565141Y65249D01*
X563876Y63984D01*
X562389Y62990D01*
X560736Y62306D01*
X559611Y62082D01*
X559611Y69514D01*
G37*
%LPD*%
%LPC*%
G36*
X462611Y69514D02*
X462611Y69514D01*
X470043Y69514D01*
X469819Y68389D01*
X469135Y66736D01*
X468141Y65249D01*
X466876Y63984D01*
X465389Y62990D01*
X463736Y62306D01*
X462611Y62082D01*
X462611Y69514D01*
G37*
%LPD*%
%LPC*%
G36*
X549132Y72561D02*
X549132Y72561D01*
X549356Y73686D01*
X550040Y75339D01*
X551034Y76826D01*
X552299Y78091D01*
X553786Y79085D01*
X555439Y79769D01*
X556564Y79993D01*
X556564Y72561D01*
X549132Y72561D01*
G37*
%LPD*%
%LPC*%
G36*
X452132Y47561D02*
X452132Y47561D01*
X452356Y48686D01*
X453040Y50339D01*
X454034Y51826D01*
X455299Y53091D01*
X456786Y54085D01*
X458439Y54769D01*
X459564Y54993D01*
X459564Y47561D01*
X452132Y47561D01*
G37*
%LPD*%
%LPC*%
G36*
X549132Y47561D02*
X549132Y47561D01*
X549356Y48686D01*
X550040Y50339D01*
X551034Y51826D01*
X552299Y53091D01*
X553786Y54085D01*
X555439Y54769D01*
X556564Y54993D01*
X556564Y47561D01*
X549132Y47561D01*
G37*
%LPD*%
%LPC*%
G36*
X452132Y72561D02*
X452132Y72561D01*
X452356Y73686D01*
X453040Y75339D01*
X454034Y76826D01*
X455299Y78091D01*
X456786Y79085D01*
X458439Y79769D01*
X459564Y79993D01*
X459564Y72561D01*
X452132Y72561D01*
G37*
%LPD*%
%LPC*%
G36*
X559611Y44514D02*
X559611Y44514D01*
X567043Y44514D01*
X566819Y43389D01*
X566135Y41736D01*
X565141Y40249D01*
X563876Y38984D01*
X562389Y37990D01*
X560736Y37306D01*
X559611Y37082D01*
X559611Y44514D01*
G37*
%LPD*%
%LPC*%
G36*
X462611Y44514D02*
X462611Y44514D01*
X470043Y44514D01*
X469819Y43389D01*
X469135Y41736D01*
X468141Y40249D01*
X466876Y38984D01*
X465389Y37990D01*
X463736Y37306D01*
X462611Y37082D01*
X462611Y44514D01*
G37*
%LPD*%
%LPC*%
G36*
X555439Y62306D02*
X555439Y62306D01*
X553786Y62990D01*
X552299Y63984D01*
X551034Y65249D01*
X550040Y66736D01*
X549356Y68389D01*
X549132Y69514D01*
X556564Y69514D01*
X556564Y62082D01*
X555439Y62306D01*
G37*
%LPD*%
%LPC*%
G36*
X458439Y62306D02*
X458439Y62306D01*
X456786Y62990D01*
X455299Y63984D01*
X454034Y65249D01*
X453040Y66736D01*
X452356Y68389D01*
X452132Y69514D01*
X459564Y69514D01*
X459564Y62082D01*
X458439Y62306D01*
G37*
%LPD*%
%LPC*%
G36*
X555439Y37306D02*
X555439Y37306D01*
X553786Y37990D01*
X552299Y38984D01*
X551034Y40249D01*
X550040Y41736D01*
X549356Y43389D01*
X549132Y44514D01*
X556564Y44514D01*
X556564Y37082D01*
X555439Y37306D01*
G37*
%LPD*%
%LPC*%
G36*
X458439Y37306D02*
X458439Y37306D01*
X456786Y37990D01*
X455299Y38984D01*
X454034Y40249D01*
X453040Y41736D01*
X452356Y43389D01*
X452132Y44514D01*
X459564Y44514D01*
X459564Y37082D01*
X458439Y37306D01*
G37*
%LPD*%
%LPC*%
G36*
X461087Y71037D02*
X461087Y71037D01*
X461087Y71038D01*
X461088Y71038D01*
X461088Y71037D01*
X461087Y71037D01*
G37*
%LPD*%
%LPC*%
G36*
X53974Y555624D02*
X53974Y555624D01*
X53974Y555626D01*
X53976Y555626D01*
X53976Y555624D01*
X53974Y555624D01*
G37*
%LPD*%
%LPC*%
G36*
X558087Y46037D02*
X558087Y46037D01*
X558087Y46038D01*
X558088Y46038D01*
X558088Y46037D01*
X558087Y46037D01*
G37*
%LPD*%
%LPC*%
G36*
X461087Y46037D02*
X461087Y46037D01*
X461087Y46038D01*
X461088Y46038D01*
X461088Y46037D01*
X461087Y46037D01*
G37*
%LPD*%
%LPC*%
G36*
X558087Y71037D02*
X558087Y71037D01*
X558087Y71038D01*
X558088Y71038D01*
X558088Y71037D01*
X558087Y71037D01*
G37*
%LPD*%
D10*
X461088Y71038D03*
X558088Y71038D03*
X461088Y46038D03*
X558088Y46038D03*
D11*
X61595Y555625D02*
X46355Y555625D01*
X46355Y530225D02*
X61595Y530225D01*
X61595Y504825D02*
X46355Y504825D01*
X46355Y479425D02*
X61595Y479425D01*
D12*
X461963Y277813D03*
X461963Y290513D03*
X473075Y290513D03*
X473075Y277813D03*
X484188Y290513D03*
X484188Y277813D03*
X495300Y277813D03*
X495300Y290513D03*
X506413Y290513D03*
X506413Y277813D03*
X517525Y277813D03*
X517525Y290513D03*
X528638Y290513D03*
X528638Y277813D03*
X539750Y290513D03*
X539750Y277813D03*
X504825Y350838D03*
X515938Y350838D03*
X527050Y350838D03*
X538163Y350838D03*
X549275Y350838D03*
X560388Y350838D03*
X571500Y350838D03*
X441325Y245269D03*
X322263Y252413D03*
X180975Y539750D03*
X185738Y241300D03*
X125413Y233363D03*
X70644Y307975D03*
X323850Y150019D03*
X252413Y166688D03*
X537369Y84138D03*
X158750Y131763D03*
X199775Y611350D03*
X403225Y93663D03*
X357188Y136525D03*
X333375Y133350D03*
D13*
X336550Y136525D01*
X357188Y136525D01*
D12*
X347663Y115888D03*
D13*
X355600Y123825D01*
X368300Y123825D01*
D12*
X368300Y123825D03*
X388938Y183356D03*
D14*
X388938Y161925D01*
D12*
X388938Y161925D03*
X388938Y113506D03*
D14*
X388938Y144463D01*
D12*
X388938Y144463D03*
X476250Y527050D03*
D13*
X476250Y349250D01*
D12*
X476250Y349250D03*
X555145Y180975D03*
D13*
X555625Y180495D02*
X555625Y147638D01*
X555625Y180495D02*
X555145Y180975D01*
D12*
X555625Y147638D03*
X460375Y527050D03*
D13*
X460375Y349250D01*
D12*
X460375Y349250D03*
X301625Y584200D03*
D13*
X306388Y638175D02*
X306388Y660400D01*
X301625Y633413D02*
X301625Y584200D01*
X301625Y633413D02*
X306388Y638175D01*
D12*
X306388Y660400D03*
X378425Y252413D03*
X384175Y269875D03*
X392113Y347663D03*
X392113Y425450D03*
X392113Y520700D03*
X392113Y554038D03*
D13*
X384175Y269875D02*
X378425Y264125D01*
X378425Y252413D01*
X392113Y347663D02*
X392113Y425450D01*
X392113Y520700D02*
X392113Y554038D01*
M02*
