G04 EAGLE Gerber RS-274X export*
G75*
%MOMM*%
%FSLAX34Y34*%
%LPD*%
%IN*%
%IPPOS*%
%AMOC8*
5,1,8,0,0,1.08239X$1,22.5*%
G01*
%ADD10C,0.254000*%


D10*
X0Y0D02*
X587349Y0D01*
X587349Y10988D01*
X587375Y107950D01*
X587375Y801688D01*
X584200Y801688D01*
X584075Y801687D01*
X0Y801687D01*
X0Y0D01*
X74984Y80013D02*
X75723Y79948D01*
X76454Y79819D01*
X77171Y79627D01*
X77868Y79373D01*
X78541Y79059D01*
X79184Y78688D01*
X79792Y78262D01*
X80361Y77785D01*
X80885Y77261D01*
X81362Y76692D01*
X81788Y76084D01*
X82159Y75441D01*
X82473Y74768D01*
X82727Y74071D01*
X82919Y73354D01*
X83048Y72623D01*
X83113Y71884D01*
X83113Y71141D01*
X83048Y70402D01*
X82919Y69671D01*
X82727Y68954D01*
X82473Y68257D01*
X82159Y67584D01*
X81788Y66941D01*
X81362Y66333D01*
X80885Y65765D01*
X80361Y65240D01*
X79792Y64763D01*
X79184Y64337D01*
X78541Y63966D01*
X77868Y63652D01*
X77171Y63398D01*
X76454Y63206D01*
X75723Y63077D01*
X74984Y63013D01*
X74241Y63013D01*
X73502Y63077D01*
X72771Y63206D01*
X72054Y63398D01*
X71357Y63652D01*
X70684Y63966D01*
X70041Y64337D01*
X69433Y64763D01*
X68865Y65240D01*
X68340Y65765D01*
X67863Y66333D01*
X67437Y66941D01*
X67066Y67584D01*
X66752Y68257D01*
X66498Y68954D01*
X66306Y69671D01*
X66177Y70402D01*
X66113Y71141D01*
X66113Y71884D01*
X66177Y72623D01*
X66306Y73354D01*
X66498Y74071D01*
X66752Y74768D01*
X67066Y75441D01*
X67437Y76084D01*
X67863Y76692D01*
X68340Y77261D01*
X68865Y77785D01*
X69433Y78262D01*
X70041Y78688D01*
X70684Y79059D01*
X71357Y79373D01*
X72054Y79627D01*
X72771Y79819D01*
X73502Y79948D01*
X74241Y80013D01*
X74984Y80013D01*
X74984Y150013D02*
X75723Y149948D01*
X76454Y149819D01*
X77171Y149627D01*
X77868Y149373D01*
X78541Y149059D01*
X79184Y148688D01*
X79792Y148262D01*
X80361Y147785D01*
X80885Y147261D01*
X81362Y146692D01*
X81788Y146084D01*
X82159Y145441D01*
X82473Y144768D01*
X82727Y144071D01*
X82919Y143354D01*
X83048Y142623D01*
X83113Y141884D01*
X83113Y141141D01*
X83048Y140402D01*
X82919Y139671D01*
X82727Y138954D01*
X82473Y138257D01*
X82159Y137584D01*
X81788Y136941D01*
X81362Y136333D01*
X80885Y135765D01*
X80361Y135240D01*
X79792Y134763D01*
X79184Y134337D01*
X78541Y133966D01*
X77868Y133652D01*
X77171Y133398D01*
X76454Y133206D01*
X75723Y133077D01*
X74984Y133013D01*
X74241Y133013D01*
X73502Y133077D01*
X72771Y133206D01*
X72054Y133398D01*
X71357Y133652D01*
X70684Y133966D01*
X70041Y134337D01*
X69433Y134763D01*
X68865Y135240D01*
X68340Y135765D01*
X67863Y136333D01*
X67437Y136941D01*
X67066Y137584D01*
X66752Y138257D01*
X66498Y138954D01*
X66306Y139671D01*
X66177Y140402D01*
X66113Y141141D01*
X66113Y141884D01*
X66177Y142623D01*
X66306Y143354D01*
X66498Y144071D01*
X66752Y144768D01*
X67066Y145441D01*
X67437Y146084D01*
X67863Y146692D01*
X68340Y147261D01*
X68865Y147785D01*
X69433Y148262D01*
X70041Y148688D01*
X70684Y149059D01*
X71357Y149373D01*
X72054Y149627D01*
X72771Y149819D01*
X73502Y149948D01*
X74241Y150013D01*
X74984Y150013D01*
X189538Y30188D02*
X189469Y29668D01*
X189333Y29161D01*
X189133Y28677D01*
X188871Y28223D01*
X188551Y27807D01*
X188181Y27436D01*
X187765Y27117D01*
X187310Y26855D01*
X186826Y26654D01*
X186320Y26518D01*
X185800Y26450D01*
X185275Y26450D01*
X184755Y26518D01*
X184249Y26654D01*
X183765Y26855D01*
X183310Y27117D01*
X182894Y27436D01*
X182524Y27807D01*
X182205Y28223D01*
X181942Y28677D01*
X181742Y29161D01*
X181606Y29668D01*
X181538Y30188D01*
X181538Y30712D01*
X181606Y31232D01*
X181742Y31739D01*
X181942Y32223D01*
X182205Y32677D01*
X182524Y33093D01*
X182894Y33464D01*
X183310Y33783D01*
X183765Y34045D01*
X184249Y34246D01*
X184755Y34382D01*
X185275Y34450D01*
X185800Y34450D01*
X186320Y34382D01*
X186826Y34246D01*
X187310Y34045D01*
X187765Y33783D01*
X188181Y33464D01*
X188551Y33093D01*
X188871Y32677D01*
X189133Y32223D01*
X189333Y31739D01*
X189469Y31232D01*
X189538Y30712D01*
X189538Y30188D01*
X291538Y30188D02*
X291469Y29668D01*
X291333Y29161D01*
X291133Y28677D01*
X290871Y28223D01*
X290551Y27807D01*
X290181Y27436D01*
X289765Y27117D01*
X289310Y26855D01*
X288826Y26654D01*
X288320Y26518D01*
X287800Y26450D01*
X287275Y26450D01*
X286755Y26518D01*
X286249Y26654D01*
X285765Y26855D01*
X285310Y27117D01*
X284894Y27436D01*
X284524Y27807D01*
X284205Y28223D01*
X283942Y28677D01*
X283742Y29161D01*
X283606Y29668D01*
X283538Y30188D01*
X283538Y30712D01*
X283606Y31232D01*
X283742Y31739D01*
X283942Y32223D01*
X284205Y32677D01*
X284524Y33093D01*
X284894Y33464D01*
X285310Y33783D01*
X285765Y34045D01*
X286249Y34246D01*
X286755Y34382D01*
X287275Y34450D01*
X287800Y34450D01*
X288320Y34382D01*
X288826Y34246D01*
X289310Y34045D01*
X289765Y33783D01*
X290181Y33464D01*
X290551Y33093D01*
X290871Y32677D01*
X291133Y32223D01*
X291333Y31739D01*
X291469Y31232D01*
X291538Y30712D01*
X291538Y30188D01*
M02*
