G04 EAGLE Gerber RS-274X export*
G75*
%MOMM*%
%FSLAX34Y34*%
%LPD*%
%INSoldermask Top*%
%IPPOS*%
%AMOC8*
5,1,8,0,0,1.08239X$1,22.5*%
G01*
%ADD10R,1.503200X1.703200*%
%ADD11R,1.703200X1.503200*%
%ADD12R,1.403200X1.403200*%
%ADD13R,1.903200X1.203200*%
%ADD14R,1.603200X0.803200*%
%ADD15R,1.103200X2.103200*%
%ADD16R,3.403200X2.103200*%
%ADD17R,1.728200X0.853200*%
%ADD18R,1.403200X0.803200*%
%ADD19R,0.653200X1.403200*%
%ADD20C,1.511200*%
%ADD21R,3.003200X2.403200*%
%ADD22R,2.803200X3.003200*%
%ADD23C,1.903200*%
%ADD24R,1.203200X3.703200*%
%ADD25R,1.703200X3.603200*%
%ADD26C,1.727200*%
%ADD27R,1.453200X0.803200*%
%ADD28R,1.203200X2.703200*%
%ADD29C,1.003200*%
%ADD30R,1.103200X1.703200*%
%ADD31R,1.703200X1.103200*%
%ADD32R,1.103200X1.103200*%
%ADD33C,0.959600*%


D10*
X107925Y307975D03*
X88925Y307975D03*
X171425Y257175D03*
X152425Y257175D03*
D11*
X207963Y311125D03*
X207963Y292125D03*
D10*
X182538Y492125D03*
X163538Y492125D03*
D11*
X409575Y228575D03*
X409575Y209575D03*
X179388Y131738D03*
X179388Y112738D03*
X161925Y539775D03*
X161925Y558775D03*
D10*
X215925Y606425D03*
X234925Y606425D03*
X258788Y287338D03*
X277788Y287338D03*
D11*
X257175Y241325D03*
X257175Y260325D03*
D12*
X424838Y155575D03*
X403838Y155575D03*
D13*
X271213Y425500D03*
X208213Y425500D03*
X271213Y463500D03*
X208213Y463500D03*
D14*
X339925Y171425D03*
X339925Y161925D03*
X339925Y152425D03*
X364925Y152425D03*
X364925Y171425D03*
D15*
X482325Y188575D03*
X497325Y188575D03*
X512325Y188575D03*
X527325Y188575D03*
D16*
X504825Y249575D03*
D17*
X71305Y284163D03*
X71305Y271463D03*
X71305Y258763D03*
X71305Y246063D03*
X125545Y246063D03*
X125545Y258763D03*
X125545Y271463D03*
X125545Y284163D03*
D18*
X201813Y261913D03*
X201813Y252413D03*
X201813Y242913D03*
X226813Y242913D03*
X226813Y261913D03*
X339925Y304775D03*
X339925Y295275D03*
X339925Y285775D03*
X364925Y285775D03*
X364925Y304775D03*
X339925Y260325D03*
X339925Y250825D03*
X339925Y241325D03*
X364925Y241325D03*
X364925Y260325D03*
D19*
X496588Y84038D03*
X503088Y84038D03*
X509588Y84038D03*
X516088Y84038D03*
X522588Y84038D03*
D20*
X461088Y71038D03*
X558088Y71038D03*
X461088Y46038D03*
X558088Y46038D03*
D21*
X111613Y60513D03*
D22*
X112613Y154513D03*
D21*
X37613Y80513D03*
D23*
X74613Y71513D03*
X74613Y141513D03*
D24*
X367825Y84138D03*
X387825Y84138D03*
D25*
X344325Y28638D03*
X411325Y28638D03*
D26*
X61595Y555625D02*
X46355Y555625D01*
X46355Y530225D02*
X61595Y530225D01*
X61595Y504825D02*
X46355Y504825D01*
X46355Y479425D02*
X61595Y479425D01*
D27*
X266900Y177775D03*
X266900Y168275D03*
X266900Y158775D03*
X291900Y158775D03*
X291900Y177775D03*
D11*
X41275Y252438D03*
X41275Y271438D03*
D10*
X258788Y312738D03*
X277788Y312738D03*
D11*
X155575Y292125D03*
X155575Y311125D03*
D10*
X247675Y206375D03*
X266675Y206375D03*
D11*
X179388Y168300D03*
X179388Y187300D03*
X441325Y228575D03*
X441325Y209575D03*
D10*
X146025Y593725D03*
X127025Y593725D03*
X357163Y212725D03*
X338163Y212725D03*
X146025Y517525D03*
X127025Y517525D03*
D11*
X182563Y292125D03*
X182563Y311125D03*
X282575Y241325D03*
X282575Y260325D03*
D13*
X271213Y527100D03*
X208213Y527100D03*
X271213Y565100D03*
X208213Y565100D03*
D28*
X196538Y67950D03*
X216538Y67950D03*
X256538Y67950D03*
X276538Y67950D03*
D29*
X185538Y30450D03*
X287538Y30450D03*
D30*
X498225Y578700D03*
X485525Y578700D03*
X472825Y578700D03*
X460125Y578700D03*
X447425Y578700D03*
X434725Y578700D03*
X422025Y578700D03*
X409325Y578700D03*
X396625Y578700D03*
X383925Y578700D03*
X371225Y578700D03*
X358525Y578700D03*
X345825Y578700D03*
X333125Y578700D03*
D31*
X320625Y561050D03*
X320625Y548350D03*
X320625Y535650D03*
X320625Y522950D03*
X320625Y510250D03*
X320625Y497550D03*
X320625Y484850D03*
X320625Y472150D03*
X320625Y459450D03*
X320625Y446750D03*
X320625Y434050D03*
X320625Y421350D03*
D30*
X333125Y403700D03*
X345825Y403700D03*
X358525Y403700D03*
X371225Y403700D03*
X383925Y403700D03*
X396625Y403700D03*
X409325Y403700D03*
X422025Y403700D03*
X434725Y403700D03*
X447425Y403700D03*
X460125Y403700D03*
X472825Y403700D03*
X485525Y403700D03*
X498225Y403700D03*
D32*
X421025Y506200D03*
X435025Y520200D03*
X421025Y520200D03*
X407025Y520200D03*
X407025Y506200D03*
X407025Y492200D03*
X421025Y492200D03*
X435025Y492200D03*
X435025Y506200D03*
D33*
X461963Y277813D03*
X461963Y290513D03*
X473075Y290513D03*
X473075Y277813D03*
X484188Y290513D03*
X484188Y277813D03*
X495300Y277813D03*
X495300Y290513D03*
X506413Y290513D03*
X506413Y277813D03*
X517525Y277813D03*
X517525Y290513D03*
X528638Y290513D03*
X528638Y277813D03*
X539750Y290513D03*
X539750Y277813D03*
X504825Y350838D03*
X515938Y350838D03*
X527050Y350838D03*
X538163Y350838D03*
X549275Y350838D03*
X560388Y350838D03*
X571500Y350838D03*
X441325Y245269D03*
X322263Y252413D03*
X180975Y539750D03*
X185738Y241300D03*
X125413Y233363D03*
X70644Y307975D03*
X323850Y150019D03*
X252413Y166688D03*
X537369Y84138D03*
X158750Y131763D03*
X199775Y611350D03*
X403225Y93663D03*
X357188Y136525D03*
X333375Y133350D03*
X347663Y115888D03*
X368300Y123825D03*
X388938Y183356D03*
X388938Y161925D03*
X388938Y113506D03*
X388938Y144463D03*
X476250Y527050D03*
X476250Y349250D03*
X555145Y180975D03*
X555625Y147638D03*
X460375Y527050D03*
X460375Y349250D03*
X301625Y584200D03*
X306388Y660400D03*
X378425Y252413D03*
X384175Y269875D03*
X392113Y347663D03*
X392113Y425450D03*
X392113Y520700D03*
X392113Y554038D03*
M02*
